<?xml version="1.0" encoding="UTF-8" standalone="no"?>
<!-- Created with Inkscape (http://www.inkscape.org/) -->

<svg
   width="58.067959mm"
   height="87.443604mm"
   viewBox="0 0 58.067959 87.443604"
   version="1.1"
   id="svg5"
   xml:space="preserve"
   sodipodi:docname="drawing.svg"
   xmlns:inkscape="http://www.inkscape.org/namespaces/inkscape"
   xmlns:sodipodi="http://sodipodi.sourceforge.net/DTD/sodipodi-0.dtd"
   xmlns="http://www.w3.org/2000/svg"
   xmlns:svg="http://www.w3.org/2000/svg"><sodipodi:namedview
     id="namedview7"
     pagecolor="#ffffff"
     bordercolor="#000000"
     borderopacity="0.25"
     inkscape:showpageshadow="2"
     inkscape:pageopacity="0.0"
     inkscape:pagecheckerboard="0"
     inkscape:deskcolor="#d1d1d1"
     inkscape:document-units="mm"
     showgrid="false"
     inkscape:zoom="0.61439951"
     inkscape:cx="975.74947"
     inkscape:cy="715.3326"
     inkscape:window-width="1536"
     inkscape:window-height="835"
     inkscape:window-x="0"
     inkscape:window-y="25"
     inkscape:window-maximized="1"
     inkscape:current-layer="layer3" /><defs
     id="defs2" /><g
     inkscape:label="Layer 1"
     inkscape:groupmode="layer"
     id="layer1"
     style="display:inline"
     transform="translate(-6.8111855,-5.7500008)"><path
       style="display:inline;fill:#000000;stroke-width:0.257689"
       d="m 6.9290491,91.248412 c -0.009,-1.06979 -0.0386,-12.87194 -0.0661,-26.22703 l -0.05,-24.281936 4.5640599,10e-6 4.56406,1e-5 v 19.92123 c 0,10.956666 0.0685,20.245926 0.15216,20.642786 l 0.15216,0.72155 h 8.7292 8.72919 l 1.26452,1.38037 c 0.69548,0.75921 2.54652,2.84858 4.11342,4.64306 1.56689,1.79448 3.27619,3.68621 3.79845,4.20385 l 0.94955,0.94116 H 25.387479 6.9452391 Z m 44.3723799,0.25097 c -1.4839,-1.74669 -2.14052,-2.4778 -7.31693,-8.14713 -1.67479,-1.83426 -3.81792,-4.22576 -4.7625,-5.31442 -0.94459,-1.08868 -1.97486,-2.27455 -2.28949,-2.63526 l -0.57204,-0.65584 -7.4316,-0.0739 -7.4316,-0.0739 v -5.61869 -5.61868 l 12.12538,0.14753 12.12538,0.14754 1.22732,-0.58143 c 1.49677,-0.70909 2.31067,-1.49852 3.20704,-3.110646 1.20314,-2.16385 0.73881,-4.61289 -1.20229,-6.34128 -1.5391,-1.37045 -2.03699,-1.40904 -15.54985,-1.20507 l -12.28238,0.18541 0.1747,-2.7084 c 0.0961,-1.48962 0.1747,-4.20324 0.1747,-6.03024 v -3.32184 l 12.89844,0.0488 c 14.48607,0.0548 14.43618,0.0496 18.5603,1.94019 2.92751,1.34209 5.51123,3.75747 7.07887,6.6177 3.44836,6.2916 3.4889,12.423836 0.11486,17.375666 -1.9047,2.79537 -5.74063,5.90826 -8.92864,7.24563 l -1.45731,0.61135 0.48497,0.7221 c 0.26673,0.39715 1.53938,1.89088 2.82811,3.3194 1.28872,1.42851 3.07466,3.54473 3.96875,4.70271 0.89408,1.15799 2.60178,3.2673 3.79489,4.68736 1.1931,1.42006 2.58988,3.13727 3.10396,3.81602 l 0.93468,1.2341 -4.40299,0.16472 c -2.42164,0.0906 -5.15281,0.16472 -6.06925,0.16472 h -1.66627 z"
       id="path398"
       sodipodi:nodetypes="cscccsscccsssccccsssscccccccsssscsscssssscssssscsscs"
       inkscape:export-filename="../../../../../adlr.svg"
       inkscape:export-xdpi="96"
       inkscape:export-ydpi="96" /></g><g
     aria-label="AD"
     id="text8478"
     style="font-weight:bold;font-size:83.1364px;font-family:Tahoma;-inkscape-font-specification:'Tahoma Bold';opacity:1;vector-effect:none;stroke-width:6.92803;stop-color:#000000;stop-opacity:1"
     transform="matrix(0.4510668,0,0,0.52265707,-142.43266,-44.033722)"><path
       d="m 315.76843,144.69412 20.41875,-60.444381 h 16.56233 l 20.41876,60.444381 H 357.5396 l -3.77524,-12.34056 H 334.7664 l -3.77524,12.34056 z m 34.66723,-23.30092 -6.17028,-19.93163 -6.17028,19.93163 z"
       id="path8480" /><path
       d="m 437.1656,114.53282 c 0,5.62903 -1.23135,10.67621 -3.69405,15.14154 -2.4627,4.43827 -5.5749,7.84817 -9.33661,10.22968 -3.13927,2.02969 -6.56269,3.34223 -10.27027,3.93761 -3.68052,0.56831 -7.6046,0.85247 -11.77224,0.85247 H 383.17565 L 362.9357,84.249739 h 38.99435 c 4.24883,0 8.22704,0.270626 11.93462,0.811879 3.70758,0.541253 7.18513,1.85379 10.43264,3.937612 3.97821,2.543887 7.11747,5.980841 9.4178,10.310862 2.30033,4.302958 3.45049,9.377198 3.45049,15.222728 z m -15.58808,-0.12178 c 0,-3.97821 -0.6901,-7.37457 -2.07029,-10.18908 -1.35313,-2.84158 -3.45049,-5.060712 -6.29206,-6.657407 -2.05676,-1.136631 -4.22177,-1.759071 -6.49503,-1.867322 -2.2462,-0.10825 -4.93893,-0.162375 -8.0782,-0.162375 h -0.28416 v 37.833554 h 0.28416 c 3.40989,0 6.27853,-0.0541 8.60592,-0.16237 2.35445,-0.13531 4.58711,-0.86601 6.698,-2.19208 2.48976,-1.56963 4.38414,-3.73464 5.68315,-6.49503 1.29901,-2.76039 1.94851,-6.12968 1.94851,-10.10789 z"
       id="path8482"
       sodipodi:nodetypes="scccsccssccsscccsccsccss" /></g></svg>
